<?xml version="1.0" encoding="UTF-8" standalone="no"?>
<!DOCTYPE svg PUBLIC "-//W3C//DTD SVG 1.1//EN" "http://www.w3.org/Graphics/SVG/1.1/DTD/svg11.dtd">
<svg version="1.1" xmlns="http://www.w3.org/2000/svg" xmlns:xlink="http://www.w3.org/1999/xlink" preserveAspectRatio="xMidYMid meet" viewBox="0 0 100 100" width="100" height="100"><defs><path d="M46.79 37.91L59.29 62.91L65.54 50.41L46.79 12.91C30.21 46.08 19.84 66.81 15.7 75.1C15.6 75.29 15.6 75.52 15.7 75.71C16.51 77.34 18.54 81.4 21.79 87.91L46.79 37.91Z" id="doNfvYXAU"></path><clipPath id="clipa40vSntNTB"><use xlink:href="#doNfvYXAU" opacity="1"></use></clipPath><path d="M40.54 75.41L53.04 50.41L46.79 37.91L28.04 75.41L21.79 87.91L59.29 87.91C62.62 87.91 64.7 87.91 65.53 87.91C69.64 87.91 73.34 85.44 74.92 81.66C74.92 81.66 74.92 81.66 74.92 81.66L81.17 69.16L40.54 75.41Z" id="a4bCzXpD1u"></path><clipPath id="clipaIlIGAUQ"><use xlink:href="#a4bCzXpD1u" opacity="1"></use></clipPath><path d="M71.79 62.91L59.29 62.91L56.17 56.66L62.42 44.16L65.54 50.41L71.79 62.91Z" id="cPVYD5po"></path><linearGradient id="gradienta1HUdFSeEF" gradientUnits="userSpaceOnUse" x1="68.67" y1="65.58" x2="63.05" y2="59.33"><stop style="stop-color: #000000;stop-opacity: 1" offset="0%"></stop><stop style="stop-color: #ee682a;stop-opacity: 1" offset="100%"></stop></linearGradient><path d="M46.79 62.91L40.54 75.41C56.41 75.41 66.33 75.41 70.3 75.41C79.6 75.41 85.65 65.62 81.49 57.3C78.53 51.38 71.13 36.58 59.29 12.91L46.79 12.91C58.03 35.38 65.05 49.42 67.86 55.04C69.67 58.65 67.04 62.91 63 62.91C60.84 62.91 55.43 62.91 46.79 62.91Z" id="b4OcnTMQ"></path><clipPath id="clipbK1gRWd6e"><use xlink:href="#b4OcnTMQ" opacity="1"></use></clipPath><path d="M40.54 75.41L40.54 75.41L46.79 62.91L53.04 75.41L40.54 75.41Z" id="ixbQILTIY"></path><linearGradient id="gradientj2khTNmCjU" gradientUnits="userSpaceOnUse" x1="46.79" y1="69.16" x2="28.66" y2="77.51"><stop style="stop-color: #989898;stop-opacity: 1" offset="0%"></stop><stop style="stop-color: #010000;stop-opacity: 1" offset="100%"></stop></linearGradient></defs><g><g><g><use xlink:href="#doNfvYXAU" opacity="1" fill="#ee682a" fill-opacity="1"></use><g clip-path="url(#clipa40vSntNTB)"><use xlink:href="#doNfvYXAU" opacity="1" fill-opacity="0" stroke="#320c1e" stroke-width="0" stroke-opacity="1"></use></g></g><g><use xlink:href="#a4bCzXpD1u" opacity="1" fill="#434343" fill-opacity="1"></use><g clip-path="url(#clipaIlIGAUQ)"><use xlink:href="#a4bCzXpD1u" opacity="1" fill-opacity="0" stroke="#ff2a8c" stroke-width="0" stroke-opacity="1"></use></g></g><g><use xlink:href="#cPVYD5po" opacity="1" fill="url(#gradienta1HUdFSeEF)"></use><g><use xlink:href="#cPVYD5po" opacity="1" fill-opacity="0" stroke="#320c1e" stroke-width="0" stroke-opacity="1"></use></g></g><g><use xlink:href="#b4OcnTMQ" opacity="1" fill="#989898" fill-opacity="1"></use><g clip-path="url(#clipbK1gRWd6e)"><use xlink:href="#b4OcnTMQ" opacity="1" fill-opacity="0" stroke="#30051a" stroke-width="0" stroke-opacity="1"></use></g></g><g><use xlink:href="#ixbQILTIY" opacity="1" fill="url(#gradientj2khTNmCjU)"></use><g><use xlink:href="#ixbQILTIY" opacity="1" fill-opacity="0" stroke="#a82b68" stroke-width="0" stroke-opacity="1"></use></g></g></g></g></svg>